<svg xmlns="http://www.w3.org/2000/svg"  viewBox="0 0 100 100" width="100px" height="100px" baseProfile="basic"><path fill="#ef5b6c" d="M26.399,11.685v77.382l14.556-1.391l0.642-34.677c0,0,12.094,34.891,13.379,34.891	c2.569,0,14.877,1.284,14.877,1.284s0.428-77.382,0-77.382c-0.428,0-14.877,0-14.877,0l-0.214,36.497L41.276,12.113L26.399,11.685z"/><path fill="#1f212b" d="M71.151,90.592l-0.129-0.352l0.019,0l-0.38-79.329L53.9,10.729l-0.004,1.007 c-0.074,17.113-0.084,26.41-0.066,31.494L41.952,10.747l-16.916-0.185l0.444,1.194l-0.162,78.629l16.611-1.644V55.995 l12.247,32.937L71.151,90.592z M55.893,12.75l12.778,0.139l0.344,71.86l-13.14-35.931C55.786,46.503,55.834,26.621,55.893,12.75z M39.93,86.93l-12.607,1.247l0.147-71.071L39.93,50.616V86.93z M41.875,50.108l-13.95-37.515l12.623,0.138l13.37,36.559 c0.01,0.112,0.021,0.144,0.029,0.17l0.029-0.01l14.204,38.84l-12.564-1.229L41.93,50.256v-0.148H41.875z"/><path fill="#1f212b" d="M30.868,60.633c-0.276,0-0.5,0.224-0.5,0.5V85c0,0.276,0.224,0.5,0.5,0.5s0.5-0.224,0.5-0.5V61.133 C31.368,60.856,31.145,60.633,30.868,60.633z"/><path fill="#1f212b" d="M65.438,31.949c-0.276,0-0.5,0.224-0.5,0.5v30.289c0,0.276,0.224,0.5,0.5,0.5s0.5-0.224,0.5-0.5 V32.449C65.938,32.173,65.715,31.949,65.438,31.949z"/><path fill="#1f212b" d="M30.762,57.352c0.276,0,0.5-0.224,0.5-0.5V50.43c0-0.276-0.224-0.5-0.5-0.5s-0.5,0.224-0.5,0.5 v6.422C30.262,57.128,30.485,57.352,30.762,57.352z"/><path fill="#1f212b" d="M65.438,15.681c-0.276,0-0.5,0.224-0.5,0.5v11.987c0,0.276,0.224,0.5,0.5,0.5s0.5-0.224,0.5-0.5 V16.181C65.938,15.904,65.715,15.681,65.438,15.681z"/><path fill="#1f212b" d="M30.762,46.862c0.276,0,0.5-0.224,0.5-0.5V34.055c0-0.276-0.224-0.5-0.5-0.5s-0.5,0.224-0.5,0.5 v12.308C30.262,46.639,30.485,46.862,30.762,46.862z"/></svg>